PathFileType	4	(X/Y/Z)	Patient4_TMGait_0pt3_01_right_28.trc.trc
DataRate	CameraRate	NumFrames	NumMarkers	Units	OrigDataRate	OrigDataStartFrame	OrigNumFrames
50.179211469534	50.179211469534	4	33	mm	50.179211469534	124	       141
Frame#	Time	Sacral			L.Shoulder			Chest			R.Shoulder			Neck			R.ASIS			L.ASIS			R.Thigh.Superior			R.Thigh.Lateral			R.Thigh.Inferior			R.Patella			L.Thigh.Superior			L.Thigh.Lateral			L.Thigh.Inferior			L.Patella			L.Shank.Superior			L.Shank.Lateral			L.Shank.Inferior			R.Shank.Superior			R.Shank.Lateral			R.Shank.Inferior			R.Heel			R.Midfoot.Superior			R.Midfoot.Lateral			R.Toe			L.Heel			L.Midfoot.Lateral			L.Midfoot.Superior			L.Toe			L.Elbow			L.Wrist			R.Elbow			R.Wrist			
		X1	Y1	Z1	X2	Y2	Z2	X3	Y3	Z3	X4	Y4	Z4	X5	Y5	Z5	X6	Y6	Z6	X7	Y7	Z7	X8	Y8	Z8	X9	Y9	Z9	X10	Y10	Z10	X11	Y11	Z11	X12	Y12	Z12	X13	Y13	Z13	X14	Y14	Z14	X15	Y15	Z15	X16	Y16	Z16	X17	Y17	Z17	X18	Y18	Z18	X19	Y19	Z19	X20	Y20	Z20	X21	Y21	Z21	X22	Y22	Z22	X23	Y23	Z23	X24	Y24	Z24	X25	Y25	Z25	X26	Y26	Z26	X27	Y27	Z27	X28	Y28	Z28	X29	Y29	Z29	X30	Y30	Z30	X31	Y31	Z31	X32	Y32	Z32	X33	Y33	Z33	

124	54.301214285714	681.412468131360	1000.207463124746	411.416793092591	915.244140853101	1427.415012466074	280.003480994952	969.415949365818	1354.710505872431	460.774271205553	846.302345787784	1430.674785050805	608.723163991089	861.216516497943	1488.919030923578	431.879615992135	883.194548139649	937.679451297783	575.584471782973	922.878498217323	952.941895834236	302.622764903083	949.430019928014	749.594861581504	558.089664544848	876.737427060881	633.157168726671	615.312960595264	971.034678463474	590.026499399287	547.135392757456	988.563480522209	509.054994589580	560.502519387533	924.881114402186	725.197815528555	335.104122377693	819.783532393113	624.055512761155	262.676191703513	874.364638363814	535.611790756595	337.025970407186	858.783630402545	468.394915656138	346.703336364441	823.852668872037	401.363035479372	336.261863349970	722.033572820721	299.291870048552	280.161073608949	748.706310105672	184.578016207023	358.206011958715	973.327962528857	419.220527407859	570.873401229208	913.511276035826	307.642265122266	632.098081329406	982.940066347060	219.468380349412	584.102345976832	882.552502643933	41.182343522744	555.293521578158	1047.897136860092	104.482078163753	596.641574503394	964.891457156241	36.725773762011	631.057969118258	1169.865619575615	61.863808229243	626.111137390899	602.591216907243	38.560500109549	397.997134533009	677.206084592013	34.867686906166	318.058132746846	761.536480042186	94.872285141337	346.424875151849	889.492719645412	41.278694638644	318.201095275257	1031.953750347126	1116.204175452403	135.359669978322	1287.802702269873	1092.423838265998	169.090165488393	670.886053124452	1125.977315305334	679.093590341909	634.145403524902	866.352498064726	691.331700849866	
125	54.321142857143	684.447736003563	999.892704308493	416.208729672863	917.607190560958	1427.041206744240	285.122345103806	972.005692011933	1354.373814471200	465.864080646012	848.911921843246	1430.266030392504	613.929921803124	863.410687378306	1488.493754160507	437.027286129311	886.276792813051	936.987809811225	580.180450696956	925.867178655010	952.440123846595	307.374472944557	952.018566261262	748.406947223596	561.545742383659	878.324550601323	632.050655024479	617.534449524601	972.409090861972	589.108332080134	549.140208051345	988.339592834806	507.491106858073	561.625108129623	926.370845759143	724.120776283278	338.573528887454	819.937607437229	624.102988523047	265.953303286370	874.001339836929	534.756424768621	339.586535703351	858.063900034064	467.199200378142	348.774767689789	821.936916828191	400.853040231236	338.077390124464	718.472471881459	300.463364668487	281.619319667751	744.092658862099	184.717363007716	358.534165057991	973.024391728843	417.251570793939	571.827741266006	912.479736666757	306.024195776733	632.691049236410	980.371434606947	217.488111593949	583.625820047910	877.389528290037	41.022010751767	554.565154077880	1043.626354421541	102.815668116401	595.464129441656	959.596434278944	36.522470954040	630.468134998321	1165.031833141900	58.774285776782	624.969005828263	596.654810433383	39.462132110257	397.700607874805	671.384287218576	35.219714694982	317.985876792654	755.962726626140	95.015989751478	346.244387126563	883.700045005612	40.820484763177	318.125128771218	1033.948797847163	1115.553263892501	140.462899092890	1290.225711818406	1095.356843291669	172.847847650682	676.516550767388	1123.444232494328	683.784285370629	642.417067496729	863.400644113026	695.621425585258	
126	54.341071428571	687.568560971337	999.867790196490	421.373778971423	919.963472505638	1426.984281564643	290.304771282151	974.752701311676	1354.316082117352	470.965238928165	851.835530944923	1430.145191153856	619.257425244031	865.728163866866	1488.372793337386	442.287051096754	889.680702437516	936.690360779752	584.901232255145	928.812981017901	952.208447227226	312.193243776826	955.109608850351	747.726675502726	564.831669506603	880.838040882784	631.490011206267	619.987698774883	974.449567963331	588.591727420835	551.085717030024	988.899027920431	506.152565048628	562.875893864572	928.127227311880	723.353971452853	342.135519476872	820.497819950011	624.307826780216	269.460179838573	874.364090000278	534.096694331086	342.262011149660	858.194540727122	466.061201102074	350.882867110130	820.631986917174	400.482151174507	339.968396139782	715.321425724247	302.011572035383	283.250868601528	739.792757935142	185.104877154482	358.823208671843	973.114950865107	415.574345818457	572.861321845962	911.587072131194	304.892441112005	633.527724199210	977.458446367302	215.745041516489	583.234964883082	871.292659101874	41.117012901344	553.968285407329	1038.485643841429	101.338819234268	594.514169266734	953.354788996988	36.490942357011	630.049176704618	1159.309677520566	55.764993849864	624.122602816181	590.805628634658	40.896319897913	397.343093853482	665.639909276942	35.833189636873	317.889015600598	750.597548864116	95.248355802815	345.971823819703	877.951306293871	40.307613788881	318.017773747914	1035.451146680691	1114.896494212392	145.700219468830	1292.105422140528	1097.169283159127	176.559811656792	682.579527612386	1121.166913722992	689.155092308754	651.403440490137	860.761019695949	700.984503663224	
127	54.361000000000	690.730709850975	1000.145960945368	426.882609713523	922.279442767544	1427.244240575626	295.492312160638	977.622535024081	1354.547578544724	476.019363674776	855.047345242678	1430.336913819287	624.641455309880	868.150783379422	1488.568889269776	447.590952992002	893.335155313060	936.776282071333	589.730775099561	931.666148070120	952.264293645453	317.058208427667	958.494883140644	747.469124835683	568.073730742774	883.935256180224	631.385663769897	622.736616434508	976.871882623510	588.372035685716	553.122271198967	989.975134363770	505.038986277855	564.344571938660	930.106083266304	722.940146477559	345.799128935256	821.483212449932	624.685086194190	273.152189978211	875.481484451600	533.661057002656	345.023268419043	859.193128352447	465.012960944247	352.980435331644	819.969580906593	400.277564234095	341.894459661241	712.630276443440	303.969986275174	285.032462965606	735.857885741163	185.794710555307	359.065124549554	973.423309504496	414.206651320062	574.035028838843	910.782176657551	304.177474826606	634.624448913642	974.330411620282	214.277252966566	582.999070236599	864.709342410476	41.366455828751	553.552544950127	1032.819812515269	100.106194716350	593.826294622359	946.637011245283	36.566487282814	629.817609067374	1153.113650601659	53.035455355716	623.580965069051	585.084735003260	42.987844724488	396.943073894970	659.985088147357	36.788553735649	317.770142102971	745.482130223420	95.592076415474	345.601773839395	872.229530906540	39.761328067447	317.884650058307	1036.437099064190	1114.240931314513	151.056685073445	1293.434331729902	1097.818831150003	180.242377735979	688.922496046678	1119.289863353271	695.147796452426	660.902158140509	858.584233663744	707.343270624753	
